<svg width="555" height="928" viewBox="0 0 555 928" fill="none" xmlns="http://www.w3.org/2000/svg">
<g clip-path="url(#clip0_28_23)">
<mask id="mask0_28_23" style="mask-type:luminance" maskUnits="userSpaceOnUse" x="268" y="92" width="22" height="663">
<path d="M289.333 92H268V754.667H289.333V92Z" fill="white"/>
</mask>
<g mask="url(#mask0_28_23)">
<mask id="mask1_28_23" style="mask-type:luminance" maskUnits="userSpaceOnUse" x="268" y="92" width="21" height="662">
<path d="M268.318 92.5104H288.443V753.719H268.318V92.5104Z" fill="white"/>
</mask>
<g mask="url(#mask1_28_23)">
<path d="M276.536 745.391L280.266 101.547" stroke="#AE0157" stroke-width="3.99237"/>
</g>
</g>
<mask id="mask2_28_23" style="mask-type:luminance" maskUnits="userSpaceOnUse" x="105" y="611" width="346" height="105">
<path d="M105.078 611.01H450.667V716H105.078V611.01Z" fill="white"/>
</mask>
<g mask="url(#mask2_28_23)">
<mask id="mask3_28_23" style="mask-type:luminance" maskUnits="userSpaceOnUse" x="105" y="611" width="345" height="105">
<path d="M426.24 611.01H128.76L105.078 663.328L128.76 715.646H426.24L449.922 663.328L426.24 611.01Z" fill="white"/>
</mask>
<g mask="url(#mask3_28_23)">
<path d="M105.078 611.01H449.911V716.089H105.078V611.01Z" fill="#E19FB5"/>
</g>
</g>
<mask id="mask4_28_23" style="mask-type:luminance" maskUnits="userSpaceOnUse" x="100" y="762" width="352" height="65">
<path d="M100.167 762.057H452V826.667H100.167V762.057Z" fill="white"/>
</mask>
<g mask="url(#mask4_28_23)">
<mask id="mask5_28_23" style="mask-type:luminance" maskUnits="userSpaceOnUse" x="100" y="762" width="354" height="65">
<path d="M132.469 762.057H421.573C439.411 762.057 453.87 776.521 453.87 794.359C453.87 812.198 439.411 826.661 421.573 826.661H132.469C114.63 826.661 100.167 812.198 100.167 794.359C100.167 776.521 114.63 762.057 132.469 762.057Z" fill="white"/>
</mask>
<g mask="url(#mask5_28_23)">
<path d="M100.167 762.057H451.708V825.974H100.167V762.057Z" fill="#AE0157"/>
</g>
</g>
<path d="M271.099 797.866C271.125 797.241 271.146 796.881 271.146 796.741C271.146 795.397 270.693 794.293 269.782 793.386C268.849 792.475 267.745 792.022 266.407 792.022C265.042 792.022 263.891 792.475 263.006 793.386C262.068 794.293 261.636 795.397 261.636 796.741C261.636 796.881 261.662 797.241 261.688 797.866L263.792 799.975C262.766 800.355 261.974 800.881 261.448 801.6C260.849 802.345 260.558 803.256 260.558 804.235C260.558 805.412 260.969 806.465 261.808 807.35C262.667 808.261 263.625 808.72 264.803 808.72H271.099V806.465H265.662C264.943 806.465 264.443 806.392 264.151 806.251C263.313 805.866 262.907 805.194 262.907 804.287C262.907 803.59 263.099 803.037 263.553 802.61C264.011 802.199 264.584 801.985 265.329 801.985H265.469C265.808 801.985 266.094 801.912 266.36 801.72C266.547 801.912 266.839 801.985 267.172 801.985H271.386V799.735H269.183L271.099 797.866ZM264.631 794.871C265.089 794.485 265.662 794.272 266.381 794.272C267.079 794.272 267.625 794.485 268.084 794.892C268.537 795.324 268.803 795.923 268.87 796.741L266.36 799.277L263.844 796.741C263.912 795.902 264.178 795.303 264.631 794.871Z" fill="white"/>
<path d="M271.244 801.985H274.864C275.771 803.11 276.875 803.709 278.166 803.709C279.463 803.709 280.562 803.11 281.5 801.985C282.406 800.86 282.864 799.47 282.864 797.866C282.864 796.261 282.406 794.892 281.5 793.767C280.562 792.621 279.463 792.043 278.166 792.043C276.875 792.043 275.771 792.621 274.864 793.767C273.927 794.892 273.494 796.282 273.494 797.938C273.494 798.485 273.567 799.084 273.76 799.735H271.244V801.985ZM279.916 800.595C279.416 801.293 278.838 801.673 278.166 801.673C277.5 801.673 276.922 801.293 276.422 800.574C275.916 799.855 275.677 798.991 275.677 797.959C275.677 796.928 275.916 796.043 276.422 795.324C276.922 794.584 277.5 794.225 278.166 794.225C278.864 794.225 279.437 794.584 279.916 795.324C280.422 796.043 280.661 796.954 280.661 798.006C280.661 799.017 280.422 799.855 279.916 800.595Z" fill="white"/>
<path d="M298.865 797.866C298.891 797.241 298.912 796.881 298.912 796.741C298.912 795.397 298.459 794.293 297.548 793.386C296.615 792.475 295.511 792.022 294.173 792.022C292.808 792.022 291.657 792.475 290.772 793.386C289.834 794.293 289.402 795.397 289.402 796.741C289.402 796.881 289.428 797.241 289.454 797.866L291.558 799.975C290.532 800.355 289.74 800.881 289.214 801.6C288.615 802.345 288.324 803.256 288.324 804.235C288.324 805.412 288.735 806.465 289.574 807.35C290.433 808.261 291.391 808.72 292.568 808.72H298.865V806.465H293.428C292.709 806.465 292.209 806.392 291.917 806.251C291.079 805.866 290.673 805.194 290.673 804.287C290.673 803.59 290.865 803.037 291.318 802.61C291.777 802.199 292.35 801.985 293.094 801.985H293.235C293.574 801.985 293.86 801.912 294.126 801.72C294.313 801.912 294.605 801.985 294.938 801.985H299.152V799.735H296.949L298.865 797.866ZM292.397 794.871C292.855 794.485 293.428 794.272 294.147 794.272C294.844 794.272 295.391 794.485 295.85 794.892C296.303 795.324 296.568 795.923 296.636 796.741L294.126 799.277L291.61 796.741C291.678 795.902 291.943 795.303 292.397 794.871Z" fill="white"/>
<path d="M309.885 792.022H306.917C305.146 792.022 303.776 792.475 302.818 793.36C301.812 794.345 301.312 795.543 301.312 796.98C301.312 797.912 301.573 798.824 302.078 799.735H299.01V801.985H309.885V792.022ZM304.713 787.636C304.448 787.85 304.307 788.162 304.307 788.496C304.307 788.834 304.448 789.147 304.713 789.407C304.974 789.647 305.286 789.793 305.646 789.793C306.031 789.793 306.344 789.647 306.604 789.407C306.87 789.147 306.99 788.834 306.99 788.496C306.99 788.162 306.87 787.829 306.604 787.59C306.344 787.371 306.031 787.23 305.625 787.23C305.286 787.23 304.974 787.371 304.713 787.636ZM307.656 799.735H306.844C305.812 799.735 305.073 799.59 304.641 799.277C303.922 798.751 303.536 797.985 303.536 797.001C303.536 796.235 303.802 795.59 304.354 795.063C304.906 794.532 305.766 794.272 306.891 794.272H307.656V799.735Z" fill="white"/>
<path d="M311.324 801.985H314.991C315.902 801.985 316.548 801.959 316.908 801.892C317.553 801.772 318.152 801.506 318.704 801.121C320.043 800.142 320.715 798.751 320.715 796.954C320.715 795.543 320.236 794.345 319.204 793.36C318.246 792.475 316.881 792.022 315.111 792.022H312.809V794.272H315.564C316.428 794.272 317.121 794.532 317.673 795.037C318.225 795.543 318.486 796.189 318.486 797.001C318.486 797.985 318.105 798.725 317.387 799.277C316.928 799.59 316.283 799.735 315.371 799.735H311.324V801.985Z" fill="white"/>
<path d="M321.937 801.985H324.166V787.23H321.937V801.985Z" fill="white"/>
<path d="M331.186 792.022C329.41 792.022 328.045 792.475 327.087 793.36C326.082 794.345 325.576 795.543 325.576 796.954C325.576 798.751 326.248 800.142 327.592 801.121C328.144 801.506 328.743 801.772 329.389 801.892C329.769 801.959 330.394 801.985 331.306 801.985H331.858C331.785 803.543 331.446 804.621 330.826 805.293C330.035 806.105 328.811 806.491 327.207 806.491H325.602V808.72H326.248C327.951 808.72 329.243 808.574 330.128 808.287C331.04 808.001 331.832 807.47 332.55 806.704C333.483 805.699 334.009 804.407 334.108 802.824C334.128 802.272 334.154 801.652 334.154 800.933V792.022H331.186ZM331.925 799.735H331.113C330.082 799.735 329.363 799.59 328.91 799.277C328.165 798.751 327.806 797.985 327.806 797.001C327.806 796.235 328.071 795.59 328.623 795.064C329.17 794.532 330.035 794.272 331.16 794.272H331.925V799.735Z" fill="white"/>
<mask id="mask6_28_23" style="mask-type:luminance" maskUnits="userSpaceOnUse" x="181" y="772" width="71" height="46">
<path d="M181.021 772.594H251.891V817.516H181.021V772.594Z" fill="white"/>
</mask>
<g mask="url(#mask6_28_23)">
<path d="M245.458 772.594H187.453C187.208 772.594 186.969 772.594 186.729 772.594C186.526 772.599 186.318 772.599 186.115 772.604C185.672 772.62 185.224 772.646 184.786 772.724C184.344 772.802 183.927 772.932 183.526 773.135C183.13 773.333 182.766 773.599 182.448 773.911C182.135 774.224 181.87 774.583 181.667 774.979C181.464 775.38 181.333 775.792 181.25 776.234C181.172 776.667 181.146 777.115 181.135 777.552C181.13 777.755 181.125 777.958 181.125 778.156C181.125 778.401 181.125 778.641 181.125 778.88V811.229C181.125 811.469 181.125 811.708 181.125 811.953C181.125 812.151 181.13 812.354 181.135 812.557C181.146 812.995 181.172 813.438 181.25 813.875C181.333 814.318 181.464 814.729 181.667 815.13C181.87 815.526 182.135 815.885 182.448 816.198C182.766 816.51 183.13 816.776 183.526 816.974C183.927 817.177 184.344 817.307 184.786 817.385C185.224 817.464 185.672 817.49 186.115 817.505C186.318 817.51 186.526 817.51 186.729 817.51C186.969 817.516 187.208 817.516 187.453 817.516H245.458C245.698 817.516 245.938 817.516 246.182 817.51C246.385 817.51 246.589 817.51 246.792 817.505C247.234 817.49 247.682 817.464 248.12 817.385C248.568 817.307 248.979 817.177 249.385 816.974C249.781 816.776 250.146 816.51 250.458 816.198C250.776 815.885 251.036 815.526 251.24 815.13C251.448 814.729 251.578 814.318 251.656 813.875C251.734 813.438 251.76 812.995 251.776 812.557C251.781 812.354 251.781 812.151 251.781 811.953C251.786 811.708 251.786 811.469 251.786 811.229V778.88C251.786 778.641 251.786 778.401 251.781 778.156C251.781 777.958 251.781 777.755 251.776 777.552C251.76 777.115 251.734 776.667 251.656 776.234C251.578 775.792 251.448 775.38 251.24 774.979C251.036 774.583 250.776 774.224 250.458 773.911C250.146 773.599 249.781 773.333 249.385 773.135C248.979 772.932 248.568 772.802 248.12 772.724C247.682 772.646 247.234 772.62 246.792 772.604C246.589 772.599 246.385 772.599 246.182 772.594C245.938 772.594 245.698 772.594 245.458 772.594Z" fill="black"/>
</g>
<path d="M245.458 774.094H246.172C246.365 774.094 246.557 774.099 246.75 774.104C247.089 774.109 247.484 774.13 247.854 774.193C248.172 774.25 248.443 774.339 248.703 774.469C248.953 774.599 249.187 774.766 249.391 774.969C249.599 775.172 249.766 775.406 249.896 775.661C250.026 775.911 250.115 776.177 250.172 776.5C250.24 776.865 250.255 777.255 250.266 777.594C250.271 777.786 250.276 777.974 250.276 778.172C250.276 778.406 250.276 778.641 250.276 778.88V811.229C250.276 811.469 250.276 811.703 250.276 811.943C250.276 812.135 250.271 812.323 250.266 812.516C250.255 812.854 250.24 813.245 250.172 813.615C250.115 813.927 250.026 814.193 249.896 814.448C249.766 814.703 249.599 814.938 249.396 815.141C249.187 815.344 248.958 815.51 248.698 815.641C248.443 815.771 248.172 815.859 247.854 815.911C247.479 815.979 247.068 816 246.76 816.005C246.562 816.01 246.37 816.016 246.172 816.016C245.932 816.016 245.693 816.016 245.458 816.016H187.453C187.448 816.016 187.448 816.016 187.443 816.016C187.208 816.016 186.974 816.016 186.734 816.016C186.542 816.016 186.344 816.01 186.156 816.005C185.839 816 185.427 815.979 185.052 815.917C184.734 815.859 184.469 815.771 184.208 815.641C183.953 815.51 183.719 815.344 183.516 815.141C183.312 814.938 183.141 814.703 183.01 814.448C182.88 814.193 182.792 813.927 182.734 813.609C182.667 813.245 182.651 812.849 182.641 812.516C182.635 812.323 182.635 812.13 182.635 811.943L182.63 811.38V778.729L182.635 778.167C182.635 777.979 182.635 777.786 182.641 777.594C182.651 777.26 182.667 776.865 182.734 776.495C182.792 776.182 182.88 775.911 183.01 775.656C183.141 775.401 183.312 775.172 183.516 774.969C183.719 774.766 183.953 774.599 184.208 774.469C184.464 774.339 184.734 774.25 185.052 774.193C185.422 774.13 185.818 774.109 186.156 774.104C186.349 774.099 186.547 774.094 186.734 774.094H245.458Z" fill="white"/>
<path d="M200.411 787.703C201.021 786.953 201.427 785.943 201.323 784.911C200.438 784.953 199.354 785.49 198.729 786.245C198.167 786.885 197.672 787.938 197.802 788.927C198.792 789.01 199.786 788.432 200.411 787.703Z" fill="black"/>
<path d="M201.312 789.12C199.865 789.037 198.641 789.932 197.948 789.932C197.26 789.932 196.203 789.162 195.062 789.182C193.573 789.203 192.198 790.042 191.443 791.365C189.891 794.021 191.031 797.958 192.542 800.125C193.276 801.193 194.156 802.37 195.318 802.328C196.417 802.287 196.849 801.62 198.187 801.62C199.521 801.62 199.911 802.328 201.073 802.307C202.281 802.287 203.036 801.234 203.766 800.167C204.609 798.948 204.953 797.771 204.974 797.703C204.953 797.682 202.646 796.802 202.625 794.172C202.604 791.969 204.432 790.917 204.521 790.854C203.484 789.333 201.87 789.162 201.312 789.12Z" fill="black"/>
<path d="M213.88 786.135C217.021 786.135 219.203 788.286 219.203 791.411C219.203 794.552 216.974 796.708 213.802 796.708H210.328V802.198H207.818V786.135H213.88ZM210.328 794.615H213.208C215.396 794.615 216.641 793.448 216.641 791.422C216.641 789.396 215.396 788.24 213.219 788.24H210.328V794.615Z" fill="black"/>
<path d="M219.859 798.87C219.859 796.818 221.443 795.563 224.245 795.406L227.469 795.219V794.318C227.469 793.016 226.583 792.234 225.104 792.234C223.703 792.234 222.833 792.901 222.62 793.948H220.333C220.469 791.833 222.281 790.276 225.198 790.276C228.052 790.276 229.88 791.776 229.88 794.125V802.198H227.563V800.271H227.505C226.823 801.573 225.328 802.396 223.781 802.396C221.474 802.396 219.859 800.969 219.859 798.87ZM227.469 797.813V796.885L224.568 797.063C223.12 797.167 222.302 797.797 222.302 798.802C222.302 799.823 223.156 800.495 224.458 800.495C226.146 800.495 227.469 799.333 227.469 797.813Z" fill="black"/>
<path d="M232.073 806.5V804.557C232.25 804.599 232.651 804.599 232.854 804.599C233.974 804.599 234.583 804.13 234.953 802.932C234.953 802.906 235.167 802.219 235.167 802.208L230.906 790.49H233.526L236.51 800.016H236.552L239.536 790.49H242.089L237.672 802.807C236.667 805.646 235.5 806.557 233.057 806.557C232.854 806.557 232.25 806.536 232.073 806.5Z" fill="black"/>
<mask id="mask7_28_23" style="mask-type:luminance" maskUnits="userSpaceOnUse" x="258" y="745" width="37" height="36">
<path d="M258.932 745.396H294.146V780.609H258.932V745.396Z" fill="white"/>
</mask>
<g mask="url(#mask7_28_23)">
<mask id="mask8_28_23" style="mask-type:luminance" maskUnits="userSpaceOnUse" x="258" y="745" width="37" height="36">
<path d="M276.542 745.396L294.146 763L276.542 780.609L258.932 763L276.542 745.396Z" fill="white"/>
</mask>
<g mask="url(#mask8_28_23)">
<path d="M258.932 745.396H294.146V780.609H258.932V745.396Z" fill="#F7911E"/>
</g>
</g>
<mask id="mask9_28_23" style="mask-type:luminance" maskUnits="userSpaceOnUse" x="106" y="283" width="346" height="106">
<path d="M106.469 283.49H452V388.568H106.469V283.49Z" fill="white"/>
</mask>
<g mask="url(#mask9_28_23)">
<mask id="mask10_28_23" style="mask-type:luminance" maskUnits="userSpaceOnUse" x="106" y="283" width="346" height="106">
<path d="M427.63 283.49H130.146L106.469 335.807L130.146 388.125H427.63L451.307 335.807L427.63 283.49Z" fill="white"/>
</mask>
<g mask="url(#mask10_28_23)">
<path d="M106.469 283.49H451.302V388.568H106.469V283.49Z" fill="#AE0157"/>
</g>
</g>
<mask id="mask11_28_23" style="mask-type:luminance" maskUnits="userSpaceOnUse" x="106" y="480" width="346" height="106">
<path d="M106.469 480.271H452V585.333H106.469V480.271Z" fill="white"/>
</mask>
<g mask="url(#mask11_28_23)">
<mask id="mask12_28_23" style="mask-type:luminance" maskUnits="userSpaceOnUse" x="106" y="480" width="346" height="105">
<path d="M427.63 480.271H130.146L106.469 532.589L130.146 584.906H427.63L451.307 532.589L427.63 480.271Z" fill="white"/>
</mask>
<g mask="url(#mask12_28_23)">
<path d="M106.469 480.271H451.302V585.349H106.469V480.271Z" fill="#AE0157"/>
</g>
</g>
<mask id="mask13_28_23" style="mask-type:luminance" maskUnits="userSpaceOnUse" x="192" y="417" width="174" height="46">
<path d="M192.604 417.005H365.167V462.667H192.604V417.005Z" fill="white"/>
</mask>
<g mask="url(#mask13_28_23)">
<path d="M192.604 417.005H365.177V461.745H192.604V417.005Z" fill="#CDCDCD"/>
</g>
<path d="M255.824 641.106V638.169H253.344V641.106H255.824Z" fill="white"/>
<path d="M262.831 641.106V638.169H260.352V641.106H262.831Z" fill="white"/>
<path d="M272.988 638.575V624.502H270.482V641.106H273.285V638.575H272.988Z" fill="white"/>
<path d="M273.125 641.106H278.812V638.575H278.49V629.893H275.984V638.575H273.125V641.106ZM276.115 643.966C275.818 644.231 275.687 644.554 275.687 644.961C275.687 645.336 275.818 645.716 276.115 645.955C276.411 646.252 276.766 646.414 277.193 646.414C277.599 646.414 277.948 646.252 278.245 645.955C278.542 645.716 278.703 645.336 278.703 644.961C278.703 644.554 278.542 644.231 278.245 643.966C277.948 643.695 277.599 643.534 277.167 643.534C276.734 643.534 276.385 643.695 276.115 643.966Z" fill="white"/>
<path d="M281.212 643.966C280.915 644.231 280.753 644.554 280.753 644.961C280.753 645.336 280.915 645.716 281.212 645.955C281.508 646.252 281.857 646.414 282.264 646.414C282.722 646.414 283.071 646.252 283.342 645.955C283.633 645.716 283.769 645.336 283.769 644.961C283.769 644.554 283.633 644.231 283.342 643.966C283.045 643.695 282.691 643.534 282.264 643.534C281.857 643.534 281.508 643.695 281.212 643.966ZM284.743 643.966C284.446 644.231 284.285 644.554 284.285 644.961C284.285 645.336 284.446 645.716 284.743 645.955C285.04 646.252 285.389 646.414 285.79 646.414C286.222 646.414 286.576 646.252 286.868 645.955C287.165 645.716 287.3 645.336 287.3 644.961C287.3 644.554 287.165 644.231 286.868 643.966C286.576 643.695 286.222 643.534 285.764 643.534C285.363 643.534 285.008 643.695 284.743 643.966ZM278.623 641.106H287.113V629.893H284.581V638.575H278.623V641.106Z" fill="white"/>
<path d="M288.354 648.679C289.27 648.544 290.187 648.169 291.156 647.549C292.098 646.929 292.854 646.2 293.312 645.419C294.041 644.257 294.39 642.888 294.39 641.268V641.106H294.661V638.575H294.338V629.893H291.801V640.216C291.801 642.398 291.343 643.966 290.4 644.877C289.942 645.336 289.27 645.768 288.354 646.148V648.679Z" fill="white"/>
<path d="M299.189 624.961C298.892 625.205 298.731 625.554 298.731 625.935C298.731 626.31 298.892 626.659 299.189 626.929C299.481 627.226 299.835 627.388 300.267 627.388C300.668 627.388 301.017 627.226 301.314 626.929C301.611 626.659 301.773 626.31 301.773 625.935C301.773 625.502 301.611 625.179 301.314 624.909C301.017 624.664 300.668 624.502 300.21 624.502C299.835 624.502 299.481 624.664 299.189 624.961ZM302.715 624.909C302.424 625.179 302.257 625.502 302.257 625.935C302.257 626.31 302.424 626.659 302.715 626.929C302.986 627.226 303.335 627.388 303.767 627.388C304.2 627.388 304.549 627.226 304.845 626.929C305.142 626.659 305.304 626.31 305.304 625.935C305.304 625.502 305.142 625.179 304.845 624.909C304.549 624.664 304.2 624.502 303.741 624.502C303.335 624.502 302.986 624.664 302.715 624.909ZM306.705 629.893H303.366C301.372 629.893 299.835 630.409 298.757 631.403C297.622 632.507 297.059 633.856 297.059 635.471C297.059 636.523 297.356 637.549 297.918 638.575H294.47V641.106H306.705V629.893ZM304.2 638.575H303.283C302.127 638.575 301.288 638.414 300.804 638.06C299.997 637.466 299.564 636.606 299.564 635.502C299.564 634.638 299.861 633.909 300.481 633.32C301.101 632.726 302.069 632.429 303.335 632.429H304.2V638.575Z" fill="white"/>
<path d="M160.079 344.793V324.012H149.688V344.793H160.079ZM151.407 325.73H158.334V343.048H151.407V325.73Z" fill="white"/>
<path d="M176.034 334.512V335.678H180.466V334.512H179.08C178.388 334.512 178.06 334.236 178.06 333.652C178.06 333.126 178.388 332.85 179.028 332.85H179.971V331.684H178.862C178.278 331.684 177.778 331.882 177.393 332.241C176.976 332.626 176.81 333.1 176.81 333.652C176.81 333.902 176.893 334.178 177.06 334.512H176.034ZM167.336 338.142C167.336 339.225 167.362 339.944 167.445 340.387C167.554 341.079 167.888 341.772 168.33 342.408C169.497 343.991 171.101 344.793 173.179 344.793H189.086V342.189H188.784V327.725H186.174V342.189H174.263C173.263 342.189 172.57 342.132 172.185 342.048C171.435 341.882 170.851 341.496 170.466 340.913C170.107 340.413 169.909 339.611 169.909 338.616V335.647H167.336V338.142Z" fill="white"/>
<path d="M191.599 328.194C191.297 328.444 191.13 328.803 191.13 329.194C191.13 329.579 191.297 329.939 191.599 330.22C191.907 330.522 192.266 330.689 192.683 330.689C193.125 330.689 193.485 330.522 193.787 330.22C194.094 329.939 194.261 329.579 194.261 329.194C194.261 328.751 194.094 328.418 193.787 328.137C193.485 327.892 193.125 327.725 192.651 327.725C192.266 327.725 191.907 327.892 191.599 328.194ZM195.229 328.194C194.927 328.444 194.761 328.803 194.761 329.194C194.761 329.579 194.927 329.939 195.229 330.22C195.537 330.522 195.896 330.689 196.313 330.689C196.755 330.689 197.115 330.522 197.417 330.22C197.724 329.939 197.86 329.579 197.86 329.194C197.86 328.751 197.724 328.418 197.417 328.137C197.115 327.892 196.755 327.725 196.282 327.725C195.896 327.725 195.537 327.892 195.229 328.194ZM188.912 344.793H197.641V333.267H195.037V342.189H188.912V344.793Z" fill="white"/>
<path d="M201.875 342.189V327.725H199.302V344.793H202.182V342.189H201.875Z" fill="white"/>
<path d="M202.014 344.793H206.196C207.253 346.095 208.524 346.788 210.024 346.788C211.519 346.788 212.795 346.095 213.873 344.793C214.925 343.491 215.451 341.882 215.451 340.027C215.451 338.168 214.925 336.59 213.873 335.288C212.795 333.96 211.519 333.293 210.024 333.293C208.524 333.293 207.253 333.96 206.196 335.288C205.118 336.59 204.618 338.199 204.618 340.111C204.618 340.746 204.701 341.439 204.925 342.189H202.014V344.793ZM212.045 343.184C211.462 343.991 210.8 344.434 210.024 344.434C209.248 344.434 208.582 343.991 207.998 343.158C207.415 342.324 207.139 341.329 207.139 340.137C207.139 338.944 207.415 337.923 207.998 337.09C208.582 336.23 209.248 335.814 210.024 335.814C210.826 335.814 211.493 336.23 212.045 337.09C212.628 337.923 212.905 338.975 212.905 340.194C212.905 341.355 212.628 342.324 212.045 343.184Z" fill="white"/>
<path d="M228.028 339.059C228.028 337.392 227.418 335.981 226.2 334.819C225.09 333.793 223.512 333.267 221.46 333.267H218.799V335.871H221.986C222.986 335.871 223.788 336.173 224.424 336.757C225.064 337.34 225.366 338.085 225.366 339.027C225.366 340.168 224.924 341.022 224.095 341.663C223.569 342.022 222.819 342.189 221.767 342.189H217.085V344.793H228.502V342.189H227.085C227.726 341.053 228.028 340.001 228.028 339.059Z" fill="white"/>
<path d="M240.079 344.793V339.111C240.079 337.064 239.277 335.428 237.694 334.319C237.058 333.819 236.365 333.517 235.647 333.402C235.23 333.293 234.48 333.267 233.428 333.267H231.1V335.871H233.871C234.923 335.871 235.673 336.064 236.256 336.48C236.808 336.866 237.168 337.423 237.308 338.116C237.418 338.501 237.475 339.251 237.475 340.246V342.189H228.329V344.793H240.079ZM233.204 328.194C232.902 328.444 232.735 328.803 232.735 329.194C232.735 329.579 232.902 329.939 233.204 330.246C233.511 330.522 233.871 330.689 234.313 330.689C234.73 330.689 235.089 330.522 235.397 330.246C235.699 329.939 235.865 329.579 235.865 329.194C235.865 328.803 235.699 328.418 235.397 328.137C235.089 327.892 234.704 327.725 234.287 327.725C233.845 327.725 233.511 327.892 233.204 328.194Z" fill="white"/>
<path d="M261.519 327.725H258.941V343.491C258.941 345.293 258.665 346.621 258.082 347.564C257.03 349.283 255.592 350.142 253.759 350.142C252.071 350.142 250.769 349.366 249.8 347.84C249.076 346.788 248.743 345.376 248.743 343.632V340.444H246.17V343.876C246.17 345.428 246.306 346.647 246.613 347.59C246.915 348.507 247.472 349.392 248.191 350.194C249.686 351.746 251.514 352.522 253.759 352.522C256.561 352.522 258.691 351.501 260.16 349.392C260.66 348.699 260.993 348.033 261.186 347.423C261.379 346.788 261.462 345.928 261.493 344.793H261.826V342.189H261.519V327.725Z" fill="white"/>
<path d="M268.746 330.548C269.079 330.413 269.631 330.329 270.381 330.329H274.814V327.725H271.215C270.131 327.725 269.329 327.751 268.855 327.835C268.053 328.001 267.335 328.303 266.642 328.751C265.751 329.361 265.173 330.189 264.892 331.215C264.699 331.965 264.59 332.908 264.59 334.095V335.871H273.402C274.647 335.871 275.59 336.204 276.225 336.866C276.725 337.449 277.001 338.142 277.001 339.027C277.001 340.168 276.59 341.053 275.756 341.663C275.256 342.022 274.48 342.189 273.454 342.189H261.652V344.793H280.137V342.189H278.72C279.361 340.939 279.663 339.887 279.663 339.001C279.663 337.392 279.053 335.98 277.861 334.819C276.809 333.793 275.23 333.267 273.152 333.267H267.22C267.335 331.882 267.829 330.991 268.746 330.548Z" fill="white"/>
<path d="M279.962 344.793H285.42V327.725H282.816V342.189H279.962V344.793Z" fill="white"/>
<path d="M301.709 333.267H299.495C298.662 333.267 297.912 333.267 297.11 333.293C295.808 333.319 294.615 333.845 293.589 334.845C292.428 335.98 291.844 337.34 291.844 338.944C291.844 341.053 292.652 342.658 294.23 343.793C294.891 344.241 295.475 344.543 296.032 344.652C296.527 344.736 297.693 344.793 299.438 344.793H301.709V333.267ZM293.813 328.137C293.506 328.418 293.37 328.751 293.37 329.194C293.37 329.579 293.506 329.939 293.813 330.22C294.12 330.522 294.506 330.689 294.922 330.689C295.365 330.689 295.751 330.522 296.058 330.22C296.334 329.939 296.475 329.579 296.475 329.194C296.475 328.751 296.334 328.418 296.032 328.137C295.725 327.892 295.339 327.725 294.922 327.725C294.506 327.725 294.12 327.892 293.813 328.137ZM297.443 328.194C297.136 328.444 297.001 328.803 297.001 329.194C297.001 329.579 297.136 329.939 297.443 330.22C297.745 330.522 298.11 330.689 298.553 330.689C298.969 330.689 299.329 330.522 299.631 330.22C299.938 329.939 300.105 329.579 300.105 329.194C300.105 328.751 299.938 328.418 299.631 328.137C299.329 327.892 298.969 327.725 298.521 327.725C298.11 327.725 297.745 327.892 297.443 328.194ZM297.969 342.189C297.167 342.189 296.558 342.105 296.199 341.939C295.032 341.387 294.48 340.413 294.48 339.027C294.48 338.085 294.756 337.34 295.422 336.757C296.032 336.173 296.86 335.871 297.912 335.871H299.131V342.189H297.969Z" fill="white"/>
<path d="M314.314 339.059C314.314 337.392 313.704 335.981 312.485 334.819C311.376 333.793 309.798 333.267 307.746 333.267H305.084V335.871H308.272C309.272 335.871 310.074 336.173 310.709 336.757C311.35 337.34 311.652 338.085 311.652 339.027C311.652 340.168 311.209 341.022 310.381 341.663C309.855 342.022 309.105 342.189 308.053 342.189H303.371V344.793H314.788V342.189H313.371C314.012 341.053 314.314 340.001 314.314 339.059Z" fill="white"/>
<path d="M326.365 344.793V339.111C326.365 337.064 325.563 335.428 323.979 334.319C323.344 333.819 322.651 333.517 321.933 333.402C321.516 333.293 320.766 333.267 319.714 333.267H317.386V335.871H320.157C321.209 335.871 321.959 336.064 322.542 336.481C323.094 336.866 323.453 337.423 323.594 338.116C323.703 338.501 323.761 339.251 323.761 340.246V342.189H314.615V344.793H326.365Z" fill="white"/>
<path d="M327.747 344.793H330.32V327.725H327.747V344.793Z" fill="white"/>
<path d="M338.438 333.267C336.391 333.267 334.808 333.793 333.699 334.819C332.537 335.954 331.954 337.34 331.954 338.975C331.954 341.053 332.73 342.658 334.282 343.793C334.923 344.241 335.615 344.543 336.36 344.684C336.803 344.767 337.527 344.793 338.579 344.793H339.214C339.131 346.595 338.746 347.84 338.022 348.616C337.11 349.559 335.699 350.001 333.839 350.001H331.985V352.579H332.73C334.699 352.579 336.193 352.413 337.22 352.079C338.272 351.746 339.188 351.137 340.022 350.251C341.1 349.09 341.709 347.59 341.818 345.762C341.85 345.126 341.876 344.408 341.876 343.574V333.267H338.438ZM339.298 342.189H338.355C337.167 342.189 336.334 342.022 335.808 341.663C334.949 341.053 334.532 340.168 334.532 339.027C334.532 338.142 334.839 337.392 335.475 336.783C336.11 336.173 337.11 335.871 338.412 335.871H339.298V342.189Z" fill="white"/>
<path d="M358.162 342.189V333.267H355.948C355.115 333.267 354.365 333.267 353.563 333.293C352.261 333.319 351.068 333.845 350.042 334.845C348.881 335.98 348.297 337.34 348.297 338.944C348.297 341.053 349.105 342.658 350.683 343.793C351.344 344.241 351.927 344.543 352.485 344.652C352.98 344.736 354.146 344.793 355.891 344.793H358.438V342.189H358.162ZM350.266 328.137C349.959 328.418 349.823 328.751 349.823 329.194C349.823 329.579 349.959 329.939 350.266 330.22C350.573 330.522 350.959 330.689 351.375 330.689C351.818 330.689 352.203 330.522 352.511 330.22C352.787 329.939 352.927 329.579 352.927 329.194C352.927 328.751 352.787 328.418 352.485 328.137C352.177 327.892 351.792 327.725 351.375 327.725C350.959 327.725 350.573 327.892 350.266 328.137ZM353.896 328.194C353.589 328.444 353.453 328.803 353.453 329.194C353.453 329.579 353.589 329.939 353.896 330.22C354.198 330.522 354.563 330.689 355.006 330.689C355.422 330.689 355.782 330.522 356.084 330.22C356.391 329.939 356.558 329.579 356.558 329.194C356.558 328.751 356.391 328.418 356.084 328.137C355.782 327.892 355.422 327.725 354.974 327.725C354.563 327.725 354.198 327.892 353.896 328.194ZM354.422 342.189C353.62 342.189 353.011 342.105 352.651 341.939C351.485 341.387 350.933 340.413 350.933 339.027C350.933 338.085 351.209 337.34 351.875 336.757C352.485 336.173 353.313 335.871 354.365 335.871H355.584V342.189H354.422Z" fill="white"/>
<path d="M362.954 325.314C362.678 325.564 362.564 325.866 362.564 326.225C362.564 326.559 362.678 326.866 362.954 327.142C363.23 327.392 363.538 327.501 363.897 327.501C364.282 327.501 364.59 327.392 364.866 327.142C365.116 326.866 365.251 326.559 365.251 326.225C365.251 325.866 365.116 325.564 364.866 325.314C364.59 325.064 364.282 324.954 363.866 324.954C363.506 324.954 363.204 325.064 362.954 325.314ZM360.985 328.194C360.683 328.444 360.517 328.803 360.517 329.194C360.517 329.579 360.683 329.939 360.985 330.22C361.293 330.522 361.652 330.689 362.069 330.689C362.511 330.689 362.871 330.522 363.173 330.22C363.48 329.939 363.647 329.579 363.647 329.194C363.647 328.751 363.48 328.418 363.173 328.137C362.871 327.892 362.511 327.725 362.038 327.725C361.652 327.725 361.293 327.892 360.985 328.194ZM364.616 328.194C364.314 328.444 364.147 328.803 364.147 329.194C364.147 329.579 364.314 329.939 364.616 330.22C364.923 330.522 365.282 330.689 365.699 330.689C366.142 330.689 366.501 330.522 366.803 330.22C367.11 329.939 367.246 329.579 367.246 329.194C367.246 328.751 367.11 328.418 366.803 328.137C366.501 327.892 366.142 327.725 365.668 327.725C365.282 327.725 364.923 327.892 364.616 328.194ZM358.298 344.793H367.027V333.267H364.423V342.189H358.298V344.793Z" fill="white"/>
<path d="M368.688 344.793H372.927C373.979 344.793 374.724 344.767 375.141 344.684C375.891 344.543 376.584 344.241 377.219 343.793C378.771 342.658 379.547 341.053 379.547 338.975C379.547 337.34 378.995 335.954 377.802 334.819C376.693 333.793 375.115 333.267 373.063 333.267H370.401V335.871H373.589C374.589 335.871 375.391 336.173 376.026 336.757C376.667 337.34 376.969 338.085 376.969 339.027C376.969 340.168 376.526 341.022 375.698 341.663C375.172 342.022 374.422 342.189 373.37 342.189H368.688V344.793Z" fill="white"/>
<path d="M383.532 342.189V327.725H380.959V344.793H383.839V342.189H383.532Z" fill="white"/>
<path d="M403.593 346.788C405.093 346.788 406.395 346.095 407.447 344.793C408.525 343.491 409.025 341.882 409.025 340.027C409.025 338.168 408.525 336.59 407.447 335.288C406.395 333.96 405.093 333.293 403.593 333.293C402.098 333.293 400.822 333.96 399.77 335.288C398.692 336.59 398.192 338.199 398.192 340.111C398.192 340.746 398.275 341.439 398.494 342.189H395.421V339.111C395.421 337.064 394.619 335.428 393.036 334.319C392.4 333.819 391.708 333.543 390.989 333.402C390.572 333.293 389.822 333.267 388.77 333.267H386.442V335.871H389.213C390.265 335.871 391.015 336.064 391.598 336.481C392.15 336.866 392.51 337.423 392.65 338.116C392.76 338.501 392.817 339.251 392.817 340.246V342.189H383.671V344.793H399.77C400.88 346.095 402.182 346.788 403.593 346.788ZM405.619 343.184C405.036 343.991 404.369 344.434 403.593 344.434C402.817 344.434 402.156 343.991 401.598 343.158C401.02 342.324 400.739 341.272 400.739 340.137C400.739 338.944 401.02 337.892 401.598 337.064C402.156 336.231 402.817 335.814 403.593 335.814C404.4 335.814 405.093 336.231 405.645 337.09C406.197 337.923 406.479 338.975 406.479 340.194C406.479 341.356 406.197 342.324 405.619 343.184Z" fill="white"/>
<path d="M150.032 540.077V523.285H141.636V540.077H150.032ZM143.022 524.671H148.621V538.666H143.022V524.671Z" fill="white"/>
<path d="M165.028 540.077V523.285H156.632V540.077H165.028ZM158.017 524.671H163.616V538.666H158.017V524.671Z" fill="white"/>
<path d="M178.903 537.973V530.765H177.112C176.44 530.765 175.836 530.765 175.185 530.785C174.133 530.806 173.169 531.233 172.341 532.041C171.403 532.957 170.935 534.056 170.935 535.353C170.935 537.056 171.58 538.353 172.857 539.27C173.393 539.629 173.867 539.874 174.315 539.968C174.716 540.03 175.659 540.077 177.065 540.077H179.127V537.973H178.903ZM172.523 526.619C172.273 526.843 172.164 527.114 172.164 527.473C172.164 527.785 172.273 528.077 172.523 528.301C172.768 528.546 173.08 528.681 173.419 528.681C173.778 528.681 174.091 528.546 174.336 528.301C174.56 528.077 174.669 527.785 174.669 527.473C174.669 527.114 174.56 526.843 174.315 526.619C174.065 526.421 173.752 526.285 173.419 526.285C173.08 526.285 172.768 526.421 172.523 526.619ZM175.455 526.666C175.211 526.869 175.096 527.16 175.096 527.473C175.096 527.785 175.211 528.077 175.455 528.301C175.7 528.546 175.992 528.681 176.351 528.681C176.685 528.681 176.976 528.546 177.226 528.301C177.471 528.077 177.607 527.785 177.607 527.473C177.607 527.114 177.471 526.843 177.226 526.619C176.976 526.421 176.685 526.285 176.33 526.285C175.992 526.285 175.7 526.421 175.455 526.666ZM175.883 537.973C175.232 537.973 174.737 537.905 174.445 537.77C173.508 537.322 173.06 536.541 173.06 535.421C173.06 534.66 173.284 534.056 173.82 533.582C174.315 533.114 174.987 532.869 175.836 532.869H176.82V537.973H175.883Z" fill="white"/>
<path d="M179.012 540.077H183.423V526.285H181.319V537.973H179.012V540.077Z" fill="white"/>
<path d="M189.983 530.765C188.322 530.765 187.046 531.186 186.15 532.015C185.212 532.936 184.743 534.056 184.743 535.374C184.743 537.056 185.368 538.353 186.624 539.27C187.139 539.629 187.697 539.874 188.301 539.989C188.66 540.056 189.243 540.077 190.092 540.077H190.608C190.54 541.53 190.228 542.541 189.645 543.166C188.905 543.926 187.764 544.285 186.264 544.285H184.764V546.369H185.368C186.957 546.369 188.165 546.233 188.993 545.968C189.848 545.697 190.587 545.202 191.259 544.489C192.129 543.546 192.624 542.338 192.712 540.858C192.733 540.348 192.759 539.765 192.759 539.093V530.765H189.983ZM190.676 537.973H189.915C188.952 537.973 188.28 537.838 187.853 537.546C187.16 537.056 186.822 536.338 186.822 535.421C186.822 534.702 187.072 534.098 187.587 533.608C188.098 533.114 188.905 532.869 189.957 532.869H190.676V537.973Z" fill="white"/>
<path d="M194.097 540.077H197.524C198.373 540.077 198.978 540.056 199.316 539.989C199.92 539.874 200.478 539.629 200.993 539.27C202.248 538.353 202.873 537.056 202.873 535.374C202.873 534.056 202.426 532.936 201.462 532.015C200.566 531.186 199.29 530.765 197.634 530.765H195.483V532.869H198.061C198.868 532.869 199.514 533.114 200.03 533.582C200.545 534.056 200.79 534.66 200.79 535.421C200.79 536.338 200.436 537.03 199.764 537.546C199.337 537.838 198.733 537.973 197.879 537.973H194.097V540.077Z" fill="white"/>
<path d="M209.354 540.077H211.635V527.447L207.693 529.822V532.197L209.354 531.077V540.077Z" fill="white"/>
<path d="M218.868 540.504L222.066 535.15C222.852 533.853 223.206 532.936 223.206 531.567C223.206 529.713 221.706 527.447 218.644 527.447C215.753 527.447 214.076 529.395 214.076 531.838C214.076 534.077 215.686 536.004 218.128 536.004C218.576 536.004 218.821 535.957 219.154 535.89L216.602 539.718L218.868 540.504ZM221.035 531.791C221.035 533.093 219.962 534.186 218.644 534.186C217.321 534.186 216.222 533.093 216.222 531.791C216.222 530.473 217.321 529.374 218.644 529.374C219.962 529.374 221.035 530.473 221.035 531.791Z" fill="white"/>
<path d="M225.041 536.046C225.041 538.89 227.036 540.322 229.208 540.322C231.38 540.322 233.369 538.89 233.369 536.046V531.749C233.369 528.884 231.38 527.447 229.208 527.447C227.036 527.447 225.041 528.884 225.041 531.749V536.046ZM227.323 531.614C227.323 530.228 228.265 529.619 229.208 529.619C230.146 529.619 231.062 530.228 231.062 531.614V536.181C231.062 537.546 230.146 538.176 229.208 538.176C228.265 538.176 227.323 537.546 227.323 536.181V531.614Z" fill="white"/>
<path d="M239.063 539.337C239.063 540.593 239.172 541.577 239.422 542.337C239.667 543.077 240.115 543.796 240.698 544.442C241.906 545.697 243.386 546.322 245.198 546.322C247.438 546.322 249.162 545.494 250.37 543.796C250.886 543.077 251.198 542.358 251.354 541.598C251.422 541.129 251.469 540.322 251.469 539.181V526.285H249.386V539.025C249.386 540.478 249.162 541.556 248.688 542.317C247.839 543.702 246.677 544.4 245.198 544.4C243.834 544.4 242.781 543.77 241.995 542.541C241.412 541.692 241.146 540.546 241.146 539.134V536.561H239.063V539.337Z" fill="white"/>
<path d="M264.625 537.973V530.765H262.834C262.162 530.765 261.558 530.765 260.907 530.785C259.855 530.806 258.891 531.233 258.063 532.041C257.125 532.957 256.657 534.056 256.657 535.353C256.657 537.056 257.302 538.353 258.579 539.27C259.115 539.629 259.589 539.874 260.037 539.968C260.438 540.03 261.381 540.077 262.787 540.077H264.849V537.973H264.625ZM258.245 526.619C257.995 526.843 257.886 527.114 257.886 527.473C257.886 527.785 257.995 528.077 258.245 528.301C258.49 528.546 258.802 528.681 259.141 528.681C259.5 528.681 259.813 528.546 260.058 528.301C260.282 528.077 260.391 527.785 260.391 527.473C260.391 527.114 260.282 526.843 260.037 526.619C259.787 526.421 259.474 526.285 259.141 526.285C258.802 526.285 258.49 526.421 258.245 526.619ZM261.177 526.666C260.933 526.869 260.818 527.16 260.818 527.473C260.818 527.785 260.933 528.077 261.177 528.301C261.422 528.546 261.714 528.681 262.073 528.681C262.407 528.681 262.698 528.546 262.948 528.301C263.193 528.077 263.329 527.785 263.329 527.473C263.329 527.114 263.193 526.843 262.948 526.619C262.698 526.421 262.407 526.285 262.052 526.285C261.714 526.285 261.422 526.421 261.177 526.666ZM261.605 537.973C260.954 537.973 260.459 537.905 260.167 537.77C259.23 537.322 258.782 536.541 258.782 535.421C258.782 534.66 259.006 534.056 259.542 533.582C260.037 533.114 260.709 532.869 261.558 532.869H262.542V537.973H261.605Z" fill="white"/>
<path d="M266.885 542.452C266.635 542.676 266.505 542.942 266.505 543.28C266.505 543.593 266.635 543.905 266.885 544.108C267.13 544.353 267.421 544.489 267.755 544.489C268.114 544.489 268.406 544.353 268.65 544.108C268.9 543.905 269.01 543.593 269.01 543.28C269.01 542.942 268.9 542.676 268.65 542.452C268.406 542.228 268.114 542.093 267.734 542.093C267.421 542.093 267.13 542.228 266.885 542.452ZM269.817 542.452C269.572 542.676 269.437 542.942 269.437 543.28C269.437 543.593 269.572 543.905 269.817 544.108C270.062 544.353 270.354 544.489 270.687 544.489C271.046 544.489 271.338 544.353 271.583 544.108C271.833 543.905 271.942 543.593 271.942 543.28C271.942 542.942 271.833 542.676 271.583 542.452C271.338 542.228 271.046 542.093 270.666 542.093C270.333 542.093 270.041 542.228 269.817 542.452ZM264.734 540.077H272.031V537.973H271.786V530.765H269.682V537.973H264.734V540.077Z" fill="white"/>
<path d="M271.896 540.077H276.349V530.765H274.271V537.973H271.896V540.077ZM274.38 526.666C274.135 526.869 274.021 527.16 274.021 527.473C274.021 527.785 274.135 528.077 274.38 528.322C274.625 528.546 274.917 528.681 275.276 528.681C275.615 528.681 275.901 528.546 276.151 528.322C276.396 528.077 276.531 527.785 276.531 527.473C276.531 527.16 276.396 526.843 276.151 526.619C275.901 526.421 275.615 526.285 275.255 526.285C274.917 526.285 274.625 526.421 274.38 526.666Z" fill="white"/>
<path d="M282.912 530.765C281.25 530.765 279.974 531.186 279.079 532.015C278.141 532.936 277.672 534.056 277.672 535.374C277.672 537.056 278.297 538.353 279.553 539.27C280.068 539.629 280.625 539.874 281.23 539.989C281.589 540.056 282.172 540.077 283.021 540.077H283.537C283.469 541.53 283.157 542.541 282.573 543.166C281.834 543.926 280.693 544.285 279.193 544.285H277.693V546.369H278.297C279.886 546.369 281.094 546.233 281.922 545.968C282.776 545.697 283.516 545.202 284.188 544.489C285.058 543.546 285.553 542.338 285.641 540.858C285.662 540.348 285.688 539.765 285.688 539.093V530.765H282.912ZM283.605 537.973H282.844C281.881 537.973 281.209 537.838 280.782 537.546C280.089 537.056 279.75 536.338 279.75 535.421C279.75 534.702 280 534.098 280.516 533.608C281.026 533.114 281.834 532.869 282.886 532.869H283.605V537.973Z" fill="white"/>
<path d="M299.026 540.077V537.973H298.781V530.765H296.698V537.973H291.682V530.765H289.578V539.337C289.578 541.129 289.198 542.452 288.412 543.212C288.031 543.593 287.474 543.952 286.714 544.265V546.369C287.474 546.254 288.235 545.942 289.042 545.426C289.823 544.916 290.453 544.306 290.834 543.66C291.438 542.697 291.729 541.556 291.729 540.212V540.077H299.026ZM296.813 526.619C296.563 526.843 296.453 527.114 296.453 527.473C296.453 527.785 296.563 528.077 296.813 528.301C297.057 528.546 297.349 528.681 297.703 528.681C298.042 528.681 298.334 528.546 298.578 528.301C298.823 528.077 298.959 527.785 298.959 527.473C298.959 527.114 298.823 526.843 298.578 526.619C298.334 526.421 298.042 526.285 297.682 526.285C297.323 526.285 297.037 526.421 296.813 526.619ZM293.901 526.619C293.651 526.843 293.542 527.114 293.542 527.473C293.542 527.785 293.651 528.077 293.901 528.301C294.146 528.546 294.459 528.681 294.797 528.681C295.151 528.681 295.469 528.546 295.714 528.301C295.938 528.077 296.047 527.785 296.047 527.473C296.047 527.114 295.938 526.843 295.693 526.619C295.443 526.421 295.13 526.285 294.797 526.285C294.459 526.285 294.146 526.421 293.901 526.619Z" fill="white"/>
<path d="M304.617 528.567C304.888 528.457 305.336 528.39 305.94 528.39H309.523V526.285H306.612C305.737 526.285 305.091 526.306 304.711 526.374C304.06 526.509 303.477 526.754 302.919 527.114C302.201 527.608 301.732 528.28 301.508 529.108C301.352 529.712 301.263 530.473 301.263 531.436V532.869H308.383C309.388 532.869 310.148 533.134 310.664 533.676C311.07 534.145 311.294 534.702 311.294 535.421C311.294 536.337 310.956 537.056 310.284 537.546C309.883 537.837 309.253 537.973 308.424 537.973H298.888V540.077H313.82V537.973H312.68C313.195 536.962 313.44 536.114 313.44 535.4C313.44 534.098 312.951 532.957 311.987 532.015C311.133 531.186 309.857 530.765 308.18 530.765H303.388C303.477 529.645 303.883 528.926 304.617 528.567Z" fill="white"/>
<path d="M313.682 540.077H318.094V526.285H315.989V537.973H313.682V540.077Z" fill="white"/>
<path d="M319.435 540.077H321.518V526.285H319.435V540.077Z" fill="white"/>
<path d="M326.664 534.702C326.664 535.577 326.685 536.16 326.752 536.515C326.841 537.077 327.112 537.634 327.471 538.15C328.409 539.426 329.711 540.077 331.388 540.077H343.971V530.765H341.888V537.973H332.263C331.456 537.973 330.893 537.952 330.581 537.884C329.976 537.728 329.508 537.41 329.195 536.942C328.903 536.541 328.747 535.89 328.747 535.082V532.686H326.664V534.702ZM333.424 526.619C333.2 526.843 333.091 527.114 333.091 527.473C333.091 527.785 333.2 528.077 333.424 528.301C333.669 528.546 333.961 528.681 334.341 528.681C334.679 528.681 334.992 528.546 335.237 528.301C335.487 528.077 335.596 527.785 335.596 527.473C335.596 527.16 335.487 526.869 335.237 526.666C334.95 526.421 334.659 526.285 334.32 526.285C333.961 526.285 333.669 526.421 333.424 526.619ZM336.357 526.666C336.112 526.869 336.002 527.16 336.002 527.473C336.002 527.785 336.112 528.077 336.357 528.301C336.607 528.546 336.898 528.681 337.252 528.681C337.591 528.681 337.883 528.546 338.127 528.301C338.372 528.077 338.508 527.785 338.508 527.473C338.508 527.114 338.372 526.843 338.127 526.619C337.883 526.421 337.591 526.285 337.232 526.285C336.898 526.285 336.607 526.421 336.357 526.666Z" fill="white"/>
<path d="M347.391 537.973V526.285H345.308V540.077H347.636V537.973H347.391Z" fill="white"/>
<path d="M347.501 540.077H351.954V530.765H349.876V537.973H347.501V540.077ZM349.985 526.666C349.74 526.869 349.626 527.16 349.626 527.473C349.626 527.785 349.74 528.077 349.985 528.322C350.23 528.546 350.521 528.681 350.881 528.681C351.219 528.681 351.506 528.546 351.756 528.322C352.001 528.077 352.136 527.785 352.136 527.473C352.136 527.16 352.001 526.843 351.756 526.619C351.506 526.421 351.219 526.285 350.86 526.285C350.521 526.285 350.23 526.421 349.985 526.666Z" fill="white"/>
<path d="M355.381 537.973V526.285H353.298V540.077H355.626V537.973H355.381Z" fill="white"/>
<path d="M357.642 542.452C357.392 542.676 357.262 542.942 357.262 543.28C357.262 543.593 357.392 543.905 357.642 544.108C357.887 544.353 358.178 544.489 358.512 544.489C358.871 544.489 359.163 544.353 359.407 544.108C359.657 543.905 359.767 543.593 359.767 543.28C359.767 542.942 359.657 542.676 359.407 542.452C359.163 542.228 358.871 542.093 358.491 542.093C358.178 542.093 357.887 542.228 357.642 542.452ZM360.574 542.452C360.329 542.676 360.194 542.942 360.194 543.28C360.194 543.593 360.329 543.905 360.574 544.108C360.819 544.353 361.111 544.489 361.444 544.489C361.803 544.489 362.095 544.353 362.34 544.108C362.59 543.905 362.699 543.593 362.699 543.28C362.699 542.942 362.59 542.676 362.34 542.452C362.095 542.228 361.803 542.093 361.423 542.093C361.09 542.093 360.798 542.228 360.574 542.452ZM355.491 540.077H362.788V537.973H362.543V530.765H360.439V537.973H355.491V540.077Z" fill="white"/>
<path d="M362.653 540.077H367.106V530.765H365.028V537.973H362.653V540.077ZM365.137 542.452C364.892 542.676 364.778 542.942 364.778 543.28C364.778 543.593 364.892 543.905 365.137 544.108C365.382 544.353 365.674 544.489 366.033 544.489C366.372 544.489 366.658 544.353 366.908 544.108C367.153 543.905 367.288 543.593 367.288 543.28C367.288 542.942 367.153 542.676 366.908 542.452C366.658 542.228 366.372 542.093 366.012 542.093C365.653 542.093 365.361 542.228 365.137 542.452Z" fill="white"/>
<path d="M381.682 535.489C381.682 533.832 381.031 532.509 379.755 531.614C379.219 531.213 378.682 530.963 378.099 530.874C377.76 530.785 377.182 530.765 376.307 530.765H374.448V532.869H376.687C377.474 532.869 378.099 533.025 378.567 533.358C379.015 533.676 379.307 534.145 379.463 534.702C379.531 535.015 379.599 535.598 379.599 536.405V537.973H377.515C376.51 537.973 375.703 538.061 375.12 538.239C374.562 538.4 374.047 538.686 373.578 539.114C372.656 539.9 372.234 540.952 372.234 542.181C372.234 543.28 372.614 544.265 373.396 545.093C374.203 545.942 375.099 546.369 376.198 546.369H381.682V544.244H377C376.151 544.244 375.526 544.082 375.146 543.77C374.651 543.369 374.427 542.853 374.427 542.202C374.427 541.442 374.719 540.838 375.323 540.457C375.703 540.213 376.286 540.077 377.135 540.077H381.948V537.973H381.682V535.489Z" fill="white"/>
<path d="M383.94 542.452C383.69 542.676 383.56 542.942 383.56 543.28C383.56 543.593 383.69 543.905 383.94 544.108C384.185 544.353 384.477 544.489 384.81 544.489C385.19 544.489 385.482 544.353 385.706 544.108C385.956 543.905 386.065 543.593 386.065 543.28C386.065 542.942 385.956 542.676 385.706 542.452C385.461 542.228 385.169 542.093 384.81 542.093C384.477 542.093 384.185 542.228 383.94 542.452ZM386.872 542.452C386.628 542.676 386.492 542.942 386.492 543.28C386.492 543.593 386.628 543.905 386.872 544.108C387.117 544.353 387.409 544.489 387.742 544.489C388.102 544.489 388.393 544.353 388.638 544.108C388.888 543.905 388.997 543.593 388.997 543.28C388.997 542.942 388.888 542.676 388.638 542.452C388.393 542.228 388.102 542.093 387.721 542.093C387.388 542.093 387.096 542.228 386.872 542.452ZM381.789 540.077H388.841V530.765H386.737V537.973H381.789V540.077Z" fill="white"/>
<path d="M390.183 540.077H392.266V526.285H390.183V540.077Z" fill="white"/>
<path d="M393.294 546.369C394.055 546.254 394.815 545.942 395.623 545.426C396.404 544.916 397.034 544.306 397.414 543.66C398.018 542.697 398.31 541.556 398.31 540.213V540.077H398.534V537.973H398.263V530.765H396.159V539.338C396.159 541.15 395.779 542.452 394.992 543.213C394.612 543.593 394.055 543.952 393.294 544.265V546.369Z" fill="white"/>
<path d="M413.4 540.077V530.765H411.29V537.973H408.988V530.765H406.905V537.973H404.509V530.765H402.405V537.973H398.374V540.077H413.4ZM407.218 524.338C407.014 524.541 406.926 524.785 406.926 525.077C406.926 525.343 407.014 525.593 407.238 525.817C407.462 526.015 407.712 526.108 407.999 526.108C408.29 526.108 408.54 526.015 408.764 525.817C408.988 525.593 409.098 525.343 409.098 525.077C409.098 524.785 408.988 524.541 408.764 524.338C408.54 524.134 408.29 524.046 407.978 524.046C407.686 524.046 407.441 524.134 407.218 524.338ZM405.629 526.666C405.384 526.869 405.27 527.16 405.27 527.473C405.27 527.785 405.384 528.077 405.629 528.301C405.874 528.546 406.186 528.681 406.525 528.681C406.884 528.681 407.171 528.546 407.421 528.301C407.665 528.077 407.78 527.785 407.78 527.473C407.78 527.114 407.665 526.843 407.421 526.619C407.171 526.421 406.884 526.285 406.499 526.285C406.186 526.285 405.874 526.421 405.629 526.666ZM408.561 526.619C408.316 526.843 408.202 527.114 408.202 527.473C408.202 527.785 408.316 528.077 408.561 528.301C408.806 528.546 409.119 528.681 409.457 528.681C409.79 528.681 410.108 528.546 410.353 528.301C410.598 528.077 410.712 527.785 410.712 527.473C410.712 527.114 410.598 526.843 410.353 526.619C410.108 526.421 409.79 526.285 409.436 526.285C409.098 526.285 408.785 526.421 408.561 526.619Z" fill="white"/>
<path d="M245.081 440.553V422.611H241.883V443.782H245.456V440.553H245.081Z" fill="#374147"/>
<path d="M245.25 443.782H252.5V440.553H252.089V429.486H248.891V440.553H245.25V443.782ZM249.063 423.194C248.688 423.506 248.516 423.954 248.516 424.434C248.516 424.913 248.688 425.361 249.063 425.741C249.443 426.085 249.891 426.288 250.438 426.288C250.953 426.288 251.401 426.085 251.781 425.741C252.156 425.361 252.365 424.913 252.365 424.434C252.365 423.954 252.156 423.47 251.781 423.126C251.401 422.819 250.953 422.611 250.406 422.611C249.891 422.611 249.443 422.819 249.063 423.194Z" fill="#374147"/>
<path d="M255.593 423.194C255.213 423.506 255.01 423.954 255.01 424.434C255.01 424.913 255.213 425.361 255.593 425.704C255.973 426.085 256.416 426.288 256.932 426.288C257.484 426.288 257.932 426.085 258.307 425.704C258.687 425.361 258.895 424.913 258.895 424.434C258.895 423.881 258.687 423.47 258.307 423.126C257.932 422.819 257.484 422.611 256.9 422.611C256.416 422.611 255.973 422.819 255.593 423.194ZM260.093 423.194C259.718 423.506 259.51 423.954 259.51 424.434C259.51 424.913 259.718 425.361 260.093 425.704C260.473 426.085 260.921 426.288 261.437 426.288C261.984 426.288 262.432 426.085 262.812 425.704C263.187 425.361 263.359 424.913 263.359 424.434C263.359 423.881 263.187 423.47 262.812 423.126C262.432 422.819 261.984 422.611 261.4 422.611C260.921 422.611 260.473 422.819 260.093 423.194ZM252.26 443.782H263.088V429.486H259.853V440.553H252.26V443.782Z" fill="#374147"/>
<path d="M268.343 440.553V422.611H265.145V443.782H268.718V440.553H268.343Z" fill="#374147"/>
<path d="M268.512 443.783H273.699C275.007 445.397 276.59 446.256 278.444 446.256C280.298 446.256 281.882 445.397 283.22 443.783C284.528 442.168 285.179 440.173 285.179 437.871C285.179 435.569 284.528 433.611 283.22 431.996C281.882 430.345 280.298 429.522 278.444 429.522C276.59 429.522 275.007 430.345 273.699 431.996C272.361 433.611 271.741 435.605 271.741 437.975C271.741 438.767 271.845 439.626 272.121 440.553H268.512V443.783ZM280.955 441.788C280.231 442.788 279.408 443.335 278.444 443.335C277.481 443.335 276.658 442.788 275.934 441.756C275.215 440.725 274.871 439.486 274.871 438.006C274.871 436.533 275.215 435.262 275.934 434.23C276.658 433.163 277.481 432.647 278.444 432.647C279.439 432.647 280.267 433.163 280.955 434.23C281.673 435.262 282.017 436.564 282.017 438.079C282.017 439.522 281.673 440.725 280.955 441.788Z" fill="#374147"/>
<path d="M300.777 436.668C300.777 434.605 300.022 432.855 298.512 431.407C297.137 430.137 295.178 429.486 292.637 429.486H289.334V432.715H293.288C294.522 432.715 295.522 433.095 296.314 433.814C297.1 434.538 297.48 435.465 297.48 436.631C297.48 438.043 296.928 439.111 295.897 439.897C295.246 440.345 294.319 440.553 293.012 440.553H287.204V443.782H301.366V440.553H299.61C300.402 439.142 300.777 437.835 300.777 436.668Z" fill="#374147"/>
<path d="M315.727 443.782V436.736C315.727 434.194 314.727 432.168 312.769 430.793C311.982 430.173 311.123 429.793 310.227 429.657C309.711 429.522 308.784 429.486 307.477 429.486H304.591V432.715H308.029C309.331 432.715 310.263 432.954 310.982 433.47C311.67 433.954 312.118 434.642 312.289 435.501C312.425 435.98 312.498 436.907 312.498 438.147V440.553H301.154V443.782H315.727ZM307.201 423.194C306.826 423.506 306.618 423.954 306.618 424.434C306.618 424.913 306.826 425.361 307.201 425.741C307.581 426.085 308.029 426.288 308.576 426.288C309.091 426.288 309.539 426.085 309.92 425.741C310.295 425.361 310.503 424.913 310.503 424.434C310.503 423.954 310.295 423.47 309.92 423.126C309.539 422.819 309.06 422.611 308.545 422.611C307.993 422.611 307.581 422.819 307.201 423.194Z" fill="#374147"/>
<path d="M193.975 682.564V664.777H185.079V682.564H193.975ZM186.548 666.246H192.48V681.069H186.548V666.246Z" fill="white"/>
<path d="M197.146 674.147V673.689L197.563 673.626L196.834 671.106H197.979L199.667 673.439C200.802 673.33 202.469 673.241 204.667 673.168C204.261 671.033 203.401 668.564 202.084 665.772H203.5L204.834 667.522H206.542V668.439H205.563L206.709 669.939H208.5V670.876H207.417L209.188 673.168H212.229C212.771 673.168 213.229 673.267 213.604 673.46C213.854 673.6 213.979 673.751 213.979 673.918C213.979 674.085 213.854 674.241 213.604 674.376C213.229 674.574 212.771 674.668 212.229 674.668H209.188L207.417 676.96H208.5V677.897H206.709L205.563 679.397H206.542V680.314H204.834L203.5 682.064H202.084C203.401 679.345 204.261 676.876 204.667 674.668C202.469 674.585 200.802 674.496 199.667 674.397L197.979 676.731H196.834L197.563 674.21L197.146 674.147Z" fill="white"/>
<path d="M220.046 681.783C220.046 683.111 220.16 684.152 220.421 684.96C220.686 685.741 221.16 686.501 221.775 687.189C223.056 688.517 224.619 689.179 226.54 689.179C228.915 689.179 230.738 688.304 232.02 686.501C232.566 685.741 232.9 684.981 233.066 684.179C233.134 683.679 233.181 682.824 233.181 681.616V672.699H230.978V681.449C230.978 682.991 230.738 684.132 230.244 684.934C229.343 686.408 228.108 687.142 226.54 687.142C225.098 687.142 223.983 686.475 223.15 685.173C222.535 684.272 222.249 683.064 222.249 681.569V678.84H220.046V681.783ZM225.593 673.08C225.332 673.34 225.212 673.621 225.212 673.981C225.212 674.309 225.332 674.642 225.593 674.902C225.853 675.142 226.16 675.257 226.54 675.257C226.9 675.257 227.207 675.142 227.468 674.902C227.728 674.642 227.869 674.309 227.869 673.981C227.869 673.621 227.728 673.34 227.468 673.08C227.207 672.84 226.9 672.699 226.494 672.699C226.139 672.699 225.832 672.84 225.593 673.08Z" fill="white"/>
<path d="M234.602 682.564H236.805V667.955H234.602V682.564Z" fill="white"/>
<path d="M245.531 685.08C245.297 685.314 245.151 685.6 245.151 685.955C245.151 686.288 245.297 686.621 245.557 686.835C245.818 687.095 246.125 687.236 246.479 687.236C246.859 687.236 247.167 687.095 247.427 686.835C247.693 686.621 247.833 686.288 247.833 685.955C247.833 685.6 247.693 685.314 247.427 685.08C247.167 684.84 246.859 684.699 246.458 684.699C246.099 684.699 245.792 684.84 245.531 685.08ZM248.641 685.08C248.401 685.314 248.26 685.6 248.26 685.955C248.26 686.288 248.401 686.621 248.641 686.835C248.901 687.095 249.208 687.236 249.589 687.236C249.969 687.236 250.276 687.095 250.536 686.835C250.797 686.621 250.917 686.288 250.917 685.955C250.917 685.6 250.797 685.314 250.51 685.08C250.25 684.84 249.943 684.699 249.562 684.699C249.208 684.699 248.901 684.84 248.641 685.08ZM250.937 682.564V680.335H250.677V672.699H248.474V680.335H243.161V672.699H240.932V681.783C240.932 683.679 240.526 685.08 239.698 685.887C239.297 686.288 238.703 686.668 237.896 687.001V689.231C238.703 689.111 239.51 688.777 240.359 688.231C241.193 687.689 241.854 687.048 242.26 686.361C242.901 685.34 243.208 684.132 243.208 682.705V682.564H250.937Z" fill="white"/>
<path d="M266.563 682.564V680.335H265.354C265.901 679.434 266.182 678.553 266.182 677.699C266.182 676.257 265.662 675.022 264.641 674.027C263.74 673.147 262.365 672.699 260.589 672.699H255.464V667.955H253.234V680.335H250.792V682.564H266.563ZM255.464 674.928H259.969C260.917 674.928 261.656 674.996 262.177 675.142C262.724 675.257 263.125 675.569 263.432 676.043C263.787 676.538 263.932 677.064 263.932 677.632C263.932 678.606 263.573 679.361 262.839 679.882C262.412 680.194 261.75 680.335 260.87 680.335H255.464V674.928Z" fill="white"/>
<path d="M266.439 682.564H271.11V667.955H268.881V680.335H266.439V682.564Z" fill="white"/>
<path d="M272.534 682.564H274.737V667.955H272.534V682.564Z" fill="white"/>
<path d="M279.858 689.231C280.665 689.111 281.472 688.777 282.321 688.231C283.155 687.689 283.816 687.048 284.222 686.361C284.863 685.34 285.17 684.132 285.17 682.705V682.564H285.405V680.335H285.123V672.699H282.894V681.783C282.894 683.705 282.488 685.08 281.66 685.887C281.259 686.288 280.665 686.668 279.858 687.001V689.231Z" fill="white"/>
<path d="M291.311 670.371C291.593 670.257 292.067 670.184 292.707 670.184H296.504V667.955H293.421C292.494 667.955 291.806 667.975 291.405 668.048C290.718 668.189 290.103 668.455 289.509 668.83C288.749 669.356 288.249 670.064 288.015 670.944C287.848 671.585 287.754 672.387 287.754 673.408V674.928H295.296C296.364 674.928 297.171 675.21 297.712 675.783C298.14 676.277 298.379 676.871 298.379 677.632C298.379 678.606 298.02 679.361 297.311 679.882C296.884 680.194 296.218 680.335 295.343 680.335H285.239V682.564H294.936C295.864 682.564 296.478 682.538 296.858 682.47C297.478 682.35 298.072 682.09 298.614 681.71C299.254 681.262 299.754 680.668 300.108 679.908C300.462 679.173 300.655 678.413 300.655 677.632C300.655 676.231 300.134 675.022 299.114 674.027C298.233 673.147 296.884 672.699 295.082 672.699H290.004C290.103 671.512 290.525 670.751 291.311 670.371Z" fill="white"/>
<path d="M302.049 682.564H304.252V667.955H302.049V682.564Z" fill="white"/>
<path d="M315.041 677.652C315.041 676.231 314.52 675.022 313.479 674.027C312.531 673.147 311.177 672.699 309.421 672.699H307.145V674.928H309.874C310.729 674.928 311.416 675.189 311.958 675.684C312.505 676.184 312.765 676.824 312.765 677.632C312.765 678.606 312.385 679.34 311.677 679.882C311.223 680.194 310.583 680.335 309.682 680.335H305.677V682.564H315.447V680.335H314.239C314.781 679.361 315.041 678.46 315.041 677.652ZM307.546 668.356C307.286 668.569 307.145 668.882 307.145 669.21C307.145 669.543 307.286 669.85 307.546 670.111C307.807 670.35 308.119 670.491 308.473 670.491C308.854 670.491 309.161 670.35 309.421 670.111C309.682 669.85 309.828 669.543 309.828 669.21C309.828 668.882 309.682 668.548 309.421 668.309C309.161 668.095 308.828 667.955 308.447 667.955C308.093 667.955 307.807 668.095 307.546 668.356Z" fill="white"/>
<path d="M317.602 668.356C317.341 668.569 317.195 668.882 317.195 669.21C317.195 669.543 317.341 669.85 317.602 670.09C317.862 670.35 318.169 670.491 318.523 670.491C318.904 670.491 319.211 670.35 319.471 670.09C319.737 669.85 319.878 669.543 319.878 669.21C319.878 668.83 319.737 668.548 319.471 668.309C319.211 668.095 318.904 667.955 318.503 667.955C318.169 667.955 317.862 668.095 317.602 668.356ZM320.706 668.356C320.445 668.569 320.305 668.882 320.305 669.21C320.305 669.543 320.445 669.85 320.706 670.09C320.966 670.35 321.279 670.491 321.633 670.491C322.013 670.491 322.32 670.35 322.581 670.09C322.841 669.85 322.961 669.543 322.961 669.21C322.961 668.83 322.841 668.548 322.581 668.309C322.32 668.095 322.013 667.955 321.607 667.955C321.279 667.955 320.966 668.095 320.706 668.356ZM315.299 682.564H322.768V672.699H320.539V680.335H315.299V682.564Z" fill="white"/>
<path d="M327.889 689.231C328.696 689.111 329.504 688.777 330.352 688.231C331.186 687.689 331.847 687.048 332.254 686.361C332.894 685.34 333.201 684.132 333.201 682.705V682.564H333.436V680.335H333.155V672.699H330.925V681.783C330.925 683.705 330.519 685.08 329.691 685.887C329.29 686.288 328.696 686.668 327.889 687.001V689.231ZM331.019 668.309C330.806 668.548 330.665 668.882 330.665 669.21C330.665 669.543 330.806 669.85 331.066 670.111C331.326 670.35 331.634 670.491 331.993 670.491C332.373 670.491 332.681 670.35 332.941 670.111C333.201 669.85 333.321 669.543 333.321 669.21C333.321 668.882 333.201 668.548 332.941 668.309C332.681 668.095 332.347 667.955 331.967 667.955C331.613 667.955 331.28 668.095 331.019 668.309Z" fill="white"/>
<path d="M343.608 682.564V680.335H343.327V677.699C343.327 675.949 342.639 674.548 341.285 673.6C340.738 673.173 340.15 672.913 339.53 672.814C339.176 672.72 338.535 672.699 337.634 672.699H335.639V674.929H338.014C338.915 674.929 339.556 675.095 340.051 675.449C340.525 675.783 340.837 676.257 340.952 676.85C341.051 677.179 341.098 677.819 341.098 678.673V680.335H333.27V682.564H343.608ZM337.441 685.1C337.207 685.34 337.087 685.621 337.087 685.981C337.087 686.309 337.207 686.642 337.468 686.882C337.728 687.142 338.035 687.262 338.415 687.262C338.77 687.262 339.082 687.142 339.343 686.882C339.603 686.642 339.744 686.309 339.744 685.981C339.744 685.621 339.603 685.34 339.343 685.1C339.082 684.866 338.749 684.72 338.395 684.72C338.014 684.72 337.707 684.866 337.441 685.1Z" fill="white"/>
<path d="M353.497 682.564V677.699C353.497 675.949 352.81 674.548 351.456 673.6C350.909 673.173 350.32 672.913 349.7 672.814C349.346 672.72 348.706 672.699 347.805 672.699H345.81V674.929H348.185C349.086 674.929 349.727 675.095 350.221 675.449C350.695 675.783 351.008 676.257 351.122 676.85C351.221 677.179 351.268 677.819 351.268 678.673V680.335H343.44V682.564H353.497Z" fill="white"/>
</g>
<defs>
<clipPath id="clip0_28_23">
<rect width="555" height="928" fill="white"/>
</clipPath>
</defs>
</svg>
